<?xml version="1.0" encoding="UTF-8"?>
<!DOCTYPE svg  PUBLIC '-//W3C//DTD SVG 1.1//EN'  'http://www.w3.org/Graphics/SVG/1.1/DTD/svg11.dtd'>
<svg enable-background="new 0 0 959 593" version="1.1" viewBox="0 0 959 593" xml:space="preserve" xmlns="http://www.w3.org/2000/svg">
<g fill="#D3D3D3">
	<path d="m161.1 453.7-0.3 85.4 1.6 1 3.101 0.2 1.5-1.101h2.6l0.2 2.9 7 6.8 0.5 2.601 3.4-1.9 0.6-0.2 0.3-3.1 1.5-1.601 1.101-0.199 1.899-1.5 3.101 2.1 0.6 2.9 1.9 1.1 1.1 2.4 3.9 1.8 3.399 6 2.7 3.899 2.3 2.7 1.5 3.7 5 1.8 5.2 2.101 1 4.399 0.5 3.101-1 3.399-1.8 2.3-1.601-0.8-1.5-3.1-2.699-1.5-1.801-1.099-0.8 0.801 1.5 2.699 0.2 3.7-1.1 0.5-1.9-1.899-2.1-1.301 0.5 1.601 1.3 1.8-0.8 0.8s-0.801-0.3-1.301-1c-0.5-0.6-2.1-3.399-2.1-3.399l-1-2.301s-0.3 1.301-1 1c-0.6-0.3-1.3-1.5-1.3-1.5l1.8-1.899-1.5-1.5v-5h-0.8l-0.8 3.399-1.101 0.5-1-3.699-0.6-3.7-0.8-0.5 0.3 5.7v1.1l-1.5-1.3-3.601-6-2.1-0.5-0.601-3.7-1.6-2.9-1.6-1.1v-2.3l2.1-1.3-0.5-0.301-2.6 0.601-3.4-2.4-2.6-2.9-4.801-2.6-4-2.6 1.301-3.2v-1.602l-1.801 1.601-2.899 1.1-3.7-1.1-5.7-2.4h-5.5l-0.6 0.5-6.5-3.899-2.101-0.301-2.699-5.8-3.596 0.299-3.6 1.5 0.5 4.5 1.1-2.899 1 0.3-1.5 4.4 3.2-2.7 0.6 1.6-3.899 4.4-1.3-0.3-0.5-1.9-1.301-0.8-1.3 1.1-2.7-1.8-3.1 2.1-1.8 2.101-3.4 2.1-4.7-0.2-0.5-2.1 3.7-0.6v-1.302l-2.3-0.6 1-2.4 2.3-3.899v-1.8l0.2-0.801 4.4-2.3 1 1.3h2.699l-1.3-2.6-3.7-0.3-5 2.7-2.399 3.4-1.8 2.601-1.101 2.3-4.2 1.5-3.1 2.6-0.3 1.601 2.3 1 0.8 2.1-2.7 3.2-6.5 4.2-7.8 4.199-2.1 1.101-5.3 1.1-5.301 2.3 1.802 1.299-1.5 1.5-0.5 1.1-2.7-1-3.2 0.2-0.8 2.3h-1l0.3-2.4-3.6 1.3-2.9 1-3.4-1.3-2.899 1.9h-3.2l-2.1 1.3-1.601 0.799-2.1-0.3-2.601-1.1-2.3 0.6-1 1-1.6-1.1v-1.9l3.1-1.3 6.3 0.6 4.4-1.6 2.1-2.1 2.9-0.601 1.8-0.8 2.7 0.2 1.6 1.3 1-0.3 2.301-2.7 3.1-1 3.4-0.6 1.3-0.299 0.6 0.5h0.8l1.3-3.699 4-1.5 1.899-3.7 2.3-4.5 1.601-1.5 0.3-2.601-1.6 1.301-3.4 0.6-0.6-2.4-1.301-0.3-1 1-0.199 2.899-1.5-0.2-1.5-5.8-1.301 1.3-1.1-0.5-0.3-1.9-4 0.2-2.101 1.101-2.598-0.301 1.5-1.5 0.5-2.6-0.6-1.9 1.5-1 1.3-0.199-0.6-1.801v-4.4l-1-1-0.801 1.5h-6.1l-1.5-1.3-0.6-3.9-2.101-3.6v-1l2.102-0.8 0.199-2.1 1.101-1.1-0.8-0.5-1.301 0.5-1.1-2.7 1-5 4.5-3.2 2.6-1.6 1.9-3.7 2.7-1.3 2.6 1.1 0.3 2.4 2.401-0.3 3.2-2.399 1.6 0.6 1 0.601h1.6l2.3-1.302 0.8-4.399s0.3-2.9 1-3.4c0.6-0.5 1-1 1-1l-1.1-1.899-2.601 0.8-3.2 0.8-1.899-0.502-3.601-1.8-5-0.2-3.6-3.7 0.5-3.899 0.6-2.4-2.1-1.8-1.9-3.7 0.5-0.8 6.801-0.5h2.1l1 1h0.6l-0.2-1.601 3.899-0.6 2.601 0.3 1.5 1.101-1.5 2.1-0.5 1.5 2.699 1.6 5 1.801 1.801-1-2.301-4.4-1-3.2 1-0.8-3.399-1.902-0.5-1.1 0.5-1.6-0.8-3.9-2.9-4.7-2.4-4.2 2.9-1.899h3.2l1.8 0.6 4.2-0.2 3.699-3.6 1.101-3.1 3.7-2.4 1.6 1 2.7-0.6 3.7-2.101 1.1-0.2 1 0.801 4.5-0.2 2.7-3.101h1.1l3.601 2.4 1.899 2.1-0.5 1.101 0.601 1.1 1.6-1.6 3.9 0.3 0.3 3.7 1.899 1.5 7.101 0.6 6.3 4.2 1.5-1 5.2 2.6 2.1-0.6 1.9-0.8 4.8 1.899 4.499 2.7zm-115.1 28.9 2.1 5.3-0.2 1-2.9-0.3-1.8-4-1.801-1.5h-2.399l-0.2-2.601 1.8-2.399 1.1 2.4 1.5 1.5 2.8 0.6zm-2.6 33.5 3.7 0.8 3.7 1 0.8 1-1.6 3.7-3.101-0.2-3.399-3.6-0.1-2.7zm-20.7-14.1 1.1 2.601 1.1 1.6-1.1 0.8-2.1-3.1v-1.901h1zm-13.7 73.1 3.399-2.3 3.4-1 2.6 0.3 0.5 1.6 1.9 0.5 1.9-1.899-0.299-1.601 2.7-0.6 2.9 2.6-1.101 1.8-4.399 1.1-2.7-0.5-3.7-1.1-4.399 1.5-1.601 0.301-1.1-0.701zm48.9-4.5 1.6 1.9 2.1-1.6-1.5-1.3-2.2 1zm2.9 3 1.1-2.3 2.1 0.3-0.8 1.899h-2.4v0.101zm23.6-1.9 1.5 1.8 1-1.1-0.8-1.9-1.7 1.2zm8.8-12.5 1.1 5.8 2.9 0.801 5-2.9 4.399-2.6-1.6-2.4 0.5-2.4-2.101 1.301-2.898-0.802 1.6-1.1 1.9 0.8 3.899-1.8 0.5-1.5-2.399-0.8 0.8-1.9-2.7 1.9-4.7 3.6-4.8 2.9-1.4 1.1zm42.3-19.8 2.399-1.5-1-1.8-1.8 1 0.401 2.3z">
<title>Alaska</title>
	</path>
	<path d="m233.1 519.3 1.9-3.601 2.3-0.3 0.3 0.8-2.1 3.101h-2.4zm10.2-3.701 6.1 2.6 2.101-0.3 1.6-3.9-0.6-3.399-4.2-0.5-4 1.8-1.001 3.699zm30.7 10 3.7 5.5 2.399-0.3 1.101-0.5 1.5 1.3 3.699-0.2 1-1.5-2.899-1.8-1.9-3.7-2.1-3.6-5.8 2.899-0.7 1.901zm20.2 8.9 1.3-1.899 4.7 1 0.6-0.5 6.1 0.6-0.3 1.3-2.6 1.5-4.4-0.3-5.4-1.701zm5.3 5.2 1.899 3.9 3.101-1.1 0.3-1.601-1.6-2.1-3.7-0.3v1.201zm7-1.2 2.3-2.899 4.7 2.399 4.399 1.101 4.4 2.7v1.899l-3.6 1.8-4.801 1-2.398-1.5-5-6.5zm16.6 15.6 1.601-1.3 3.399 1.6 7.601 3.6 3.399 2.101 1.601 2.399 1.899 4.4 4 2.6-0.3 1.301-3.9 3.199-4.199 1.5-1.5-0.6-3.101 1.8-2.399 3.2-2.301 2.9-1.8-0.2-3.6-2.6-0.3-4.5 0.6-2.399-1.6-5.7-2.101-1.8-0.199-2.601 2.301-1 2.1-3.1 0.5-1-1.6-1.8-0.101-2z">
<title>Hawaii</title>
	</path>
	<path d="m628.5 466.4 0.6 0.2 1.3-2.7 1.5-4.4 2.3 0.601 3.101 6v1l-2.701 1.899 2.7 0.301 5.199-2.5-0.3-7.601-2.5-1.8-2-2 0.4-4 10.5-1.5 25.7-2.9 6.7-0.6 5.6 0.1-0.5-2.199-1.5-0.801-0.9-1.1 1-2.6-0.399-5.2-1.601-4.5 0.8-5.101 1.7-4.8-0.2-1.7-1.8-0.699-0.5-3.601-2.7-3.399-2-6.5-1.399-6.7-1.8-5-3.801-16-3.5-7.9-0.8-5.6 0.101-2.2-9 0.8-23.4 2.2-12.2 0.8-0.2 6.4 0.2 16.7-0.7 31-0.3 14.1 2.8 18.8 1.601 14.7h2.899z">
<title>Alabama</title>
	</path>
	<path d="m587.3 346.1-6.4-0.7 0.9-3.1 3.1-2.601 0.6-2.3-1.8-2.9-31.899 1.2-23.301 0.7-23.6 0.3 1.5 6.9 0.1 8.5 1.4 10.901 0.3 38.2 2.101 1.601 3-1.2 2.899 1.2 0.4 10.1 25.2-0.2 26.8-0.8 0.9-1.899-0.301-3.801-1.699-3.1 1.5-1.4-1.4-2.199 0.7-2.4 1.1-5.9 2.7-2.3-0.8-2.2 4-5.6 2.5-1.1-0.101-1.7-0.5-1.7 2.9-5.8 2.5-1.101 0.2-3.3 2.1-1.399 0.9-4.101-1.4-4 4.2-2.399 0.3-2.101 1.2-4.2 0.9-3.1-3.699 0.999z">
<title>Arkansas</title>
	</path>
	<path d="m135.1 389.7-0.3 1.5 0.5 1 18.9 10.7 12.1 7.601 14.7 8.6 16.8 10 12.3 2.4 25.4 2.699 6-39.6 7-53.1 4.399-31-24.6-3.601-60.7-11-0.2 1.1-2.6 16.501-2.1 3.8-2.801-0.2-1.198-2.6-2.6-0.4-1.2-1.1-1.1 0.101-2.1 1.7-0.301 6.8-0.3 1.5-0.5 12.5-1.499 2.399-0.399 3.301 2.8 5 1.1 5.5 0.7 1.1 1.1 0.9-0.401 2.399-1.7 1.2-3.4 1.6-1.6 1.801-1.6 3.6-0.5 4.9-3 2.899-1.9 0.9-0.1 5.8-0.601 1.6 0.5 0.801 3.9 0.399-0.9 3-1.7 2.4-3.699 0.4-2.6 2.2z">
<title>Arizona</title>
	</path>
	<path d="m122.7 385.9-19.7-2.7-10-1.5-0.5-1.8v-9.4l-0.3-3.199-2.601-4.2-0.8-2.3-3.9-4.2-2.899-4.701-2.7-0.2-3.2-0.8-0.3-1 1.5-0.6-0.6-3.2-1.5-2.1-4.801-0.8-3.899-2.1-1.101-2.3-2.599-4.8-2.9-3.1h-2.9l-3.9-2.1-4.5-1.8-4.2-0.5-2.4-2.699 0.5-1.9 1.8-7.1 0.8-1.9v-2.4l-1.6-1-0.5-2.901-1.5-2.6-3.4-5.8-1.3-3.1-1.5-4.7-1.6-5.3-3.2-4.4-0.5-2.9 0.8-3.899h1.1l2.1-1.601 1.1-3.6-1-2.7-2.7-0.5-1.899-2.6-2.101-3.7-0.2-8.2 0.6-1.899 0.6-2.301 0.5-2.399-5.699-6.3v-2.101l0.3-0.5 0.3-3.2-1.3-4-2.3-4.8-2.7-4.5-1.8-3.899 1-3.7 0.6-5.8 1.8-3.101 0.3-6.5-1.1-3.6-1.6-4.2-2.701-4.2 0.8-3.2 1.5-4.199 1.8-0.801 0.3-1.1 3.101-2.6 5.2-11.801 0.199-7.399 1.69-4.9 38.689 11.8 25.601 6.6-8 31.3-8.67 33.1 12.63 19.2 42.16 62.301 17.1 26.1-0.399 3.1 2.8 5.2 1.1 5.4 1 1.5 0.7 0.6-0.2 1.4-1.399 1-3.4 1.6-1.9 2.101-1.702 3.898-0.5 4.7-2.601 2.5-2.3 1.101-0.1 6.199-0.601 1.9 1 1.7 3 0.3-0.399 1.6-1.4 2-3.9 0.601-14.199-0.901zm-73.9-48.9 1.3 1.5-0.2 1.301-3.2-0.101-0.601-1.2-0.6-1.5h3.301zm1.9 0 1.199-0.6 3.601 2.1 3.1 1.2-0.899 0.601-4.5-0.2-1.601-1.601-0.9-1.5zm20.7 19.801 1.801 2.3 0.8 1 1.5 0.6 0.6-1.5-1-1.8-2.7-2-1.1 0.2v1.2h0.099zm-1.4 8.699 1.8 3.2 1.2 1.9-1.5 0.2-1.3-1.2s-0.7-1.5-0.7-1.9v-2.2h0.5z">
<title>California</title>
	</path>
	<path d="m380.2 235.5-36-3.5-79.101-8.6-2.2 22.1-7 50.4-1.899 13.7 34 3.899 37.5 4.4 34.7 3 14.3 0.6 5.7-85.999z">
<title>Colorado</title>
	</path>
	<path d="m852 190.9 3.6-3.2 1.9-2.1 0.8 0.6 2.7-1.5 5.199-1.1 7-3.5-0.6-4.2-0.8-4.4-1.601-6-4.3 1.101-21.8 4.699 0.6 3.101 1.5 7.3v8.3l-0.898 2.099 1.7 2.199 5-3.399z">
<title>Connecticut</title>
	</path>
	<path d="m834.4 247.2-1 0.5-3.6-2.4-1.8-4.7-1.9-3.6-2.3-1-2.101-3.6 0.5-2 0.5-2.3 0.101-1.1-0.601 0.101-1.699 1-2 1.699-0.2 0.301 1.399 4.1 2.301 5.6 3.699 16.101 5-0.3 6-1.101-2.299-7.301z">
<title>Delaware</title>
	</path>
	<path d="m750.2 445.2-5.199-0.7-0.7 0.801 1.5 4.399-0.4 5.2-4.1-1-0.2-2.8h-4.1l-5.301 0.7-32.399 1.9-8.2-0.3-1.7-1.7-2.5-4.2h-5.9l-6.6 0.5-35.4 4.2-0.301 2.8 1.601 1.601 2.899 2 0.301 8.399 3.3-0.6 6-2.1 6-0.5 4.399-0.601 7.601 1.8 8.1 3.9 1.6 1.5 2.9 1.1 1.6 1.9 0.301 2.7 3.199-1.3h3.9l3.6-1.9 3.7-3.6 3.101 0.199 0.5-1.1-0.801-1 0.2-1.9 4-0.8h2.601l2.899 1.5 4.2 1.5 2.4 3.7 2.7 1 1.1 3.4 3.4 1.6 1.6 2.601 1.9 0.6 5.199 1.3 1.301 3.101 3 3.699v9.5l-1.5 4.7 0.3 2.7 1.3 4.8 1.8 4 0.8-0.5 1.5-4.5-2.6-1-0.3-0.6 1.6-0.601 4.5 1 0.2 1.601-3.2 5.5-2.1 2.399 3.6 3.7 2.6 3.101 2.9 5.3 2.9 3.899 2.1 5 1.8 0.301 1.601-2.101 1.8 1.101 2.6 4 0.601 3.6 3.1 4.4 0.8-1.301 3.9 0.301 3.6 2.3 3.4 5.2 0.8 3.399 0.3 2.9 1.1 1 1.301 0.5 2.399-1 1.5-1.601 3.9-0.199 3.1-1.5 2.7-3.2-0.5-1.9-0.3-2.399 0.6-1.9-0.3-1.9 2.4-1.3 0.3-3.4-0.6-1.8-0.5-12-1.301-7.6-4.5-8.2-3.6-5.8-2.6-5.3-2.9-2.9-2.9-7.399 0.7-1.4 1.101-1.3-1.601-2.9-4-3.7-4.8-5.5-3.7-6.3-5.3-9.399-3.7-9.7-2.3-7.3-5.202-0.301zm17.701 132.7 2.4-0.6 1.3-0.2 1.5-2.3 2.3-1.601 1.3 0.5 1.7 0.301 0.4 1.1-3.5 1.2-4.2 1.5-2.3 1.2-0.9-1.1zm13.5-5 1.2 1.1 2.7-2.1 5.3-4.2 3.7-3.899 2.5-6.601 1-1.7 0.2-3.399-0.7 0.5-1 2.8-1.5 4.6-3.2 5.301-4.4 4.199-3.399 1.9-2.401 1.499z">
<title>Florida</title>
	</path>
	<path d="m750.2 444.2-5.6-0.7-1.4 1.601 1.601 4.7-0.3 3.899-2.2-0.6-0.2-3h-5.2l-5.3 0.7-32.3 1.899-7.7-0.3-1.4-1.2-2.5-4.3-0.8-3.3-1.6-0.9-0.5-0.5 0.899-2.199-0.399-5.5-1.601-4.5 0.801-4.9 1.699-4.8-0.199-2.5-1.9-0.7-0.4-3.2-2.8-3.5-1.9-6.2-1.5-7-1.699-4.8-3.801-16-3.5-8-0.8-5.3 0.101-2.3 3.3-0.3 13.6-1.601 18.601-2 6.3-1.1 0.5 1.399-2.2 0.9-0.9 2.2 0.4 2 1.4 1.6 4.3 2.7 3.2-0.1 3.199 4.699 0.601 1.601 2.3 2.8 0.5 1.7 4.7 1.8 3 2.2 2.3 3 2.3 1.3 2 1.8 1.4 2.7 2.1 1.9 4.1 1.8 2.7 6 1.7 5.1 2.8 0.7 2.101 1.9 2 5.699 2.899 1.601 1.7-0.8 0.4 1.199-3.3 6.2 0.5 2.601-1.5 4.199-2.301 10 0.801 6.301-5.103-0.298z">
<title>Georgia</title>
	</path>
	<path d="m556.8 183.6 2.1 2.1 0.3 0.7-2 3 0.3 4 2.601 4.1 3.1 1.601 2.4 0.3 0.899 1.8 0.2 2.4 2.5 1 0.9 1.1 0.5 1.601 3.8 3.3 0.6 1.899-0.699 3-1.7 3.7-0.601 2.4-2.1 1.6-1.6 0.5-5.7 1.5-1.6 4.799 0.8 1.801 1.7 1.5-0.2 3.5-1.9 1.399-0.7 1.8v2.4l-1.4 0.4-1.7 1.4-0.5 1.7 0.399 1.7-1.3 1-2.3-2.7-1.4-2.8-8.3 0.8-10 0.6-49.2 1.2-1.6-4.3-0.4-6.7-1.399-4.2-0.7-5.2-2.2-3.699-1-4.601-2.7-7.8-1.1-5.6-1.4-1.9-1.3-2.9 1.7-3.8 1.2-6.1-2.7-2.2-0.3-2.4 0.7-2.399 1.8-0.3 61.1-0.601 21.2-0.7 0.9 3.3z">
<title>Iowa</title>
	</path>
	<path d="m175.3 27.63-4.8 17.41-4.5 20.86-3.4 16.22-0.399 9.67 1.199 4.44 3.5 2.66-0.2 3.91-3.9 4.4-4.5 6.6-0.9 2.9-1.199 1.1-1.801 0.8-4.3 5.3-0.4 3.1-0.4 1.101 0.6 1 2.6-0.101 1.1 2.3-2.4 5.8-1.2 4.2-8.8 35.301 20.699 4.5 39.501 7.899 34.8 6.1 4.899-29.2 3.8-24.101-2.699-2.399-0.4-2.601-0.8-1.1-2.101 1-0.699 2.6-3.2 0.5-3.9-1.6-3.8 0.1-2.5 0.7-3.4-1.5-2.4 0.201-2.4 2-2-1.1-0.7-4 0.7-2.9-2.5-2.9-3.3-2.6-2.7-13.1-0.1-4.7-0.3-0.101-0.2 0.4-5.101 3.5-1.699-0.199-2.9-3.399-0.2-3.101 7-17.13-0.4-1.94-3.4-1.15-0.6-1.18-2.601-3.46-4.599-10.23-3.2-1.53-2-4.949 1.3-4.63-3.2-7.58 4.4-21.521-13-2.57z">
<title>Idaho</title>
	</path>
	<path d="m618.7 214.3-0.8-2.6-1.3-3.7-1.6-1.8-1.5-2.6-0.4-5.5-15.9 1.8-17.399 1h-12.3l0.199 2.1 2.2 0.9 1.101 1.4 0.399 1.4 3.9 3.4 0.7 2.399-0.7 3.3-1.7 3.7-0.8 2.7-2.4 1.9-1.899 0.6-5.2 1.3-1.3 4.101 0.6 1.1 1.9 1.8-0.2 4.3-2.101 1.601-0.5 1.3v2.8l-1.8 0.601-1.399 1.198-0.4 1.2 0.4 2-1.601 1.3-0.899 2.8 0.3 3.899 2.3 7 7 7.601 5.7 3.699v4.4l0.7 1.2 6.6 0.6 2.7 1.4-0.7 3.5-2.2 6.2-0.8 3 2 3.7 6.4 5.3 4.8 0.8 2.2 5.101 2 3.399-0.9 2.8 1.5 3.8 1.7 2.101 1.6-0.3 1-2.2 2.4-1.7 2.8-1 6.1 2.5 0.5-0.2v-1.1l-1.2-2.7 0.4-2.8 2.4-1.601 3.399-1.199-0.5-1.301-0.8-2 1.2-1.3 1-2.7v-4l0.4-4.899 2.5-3 1.8-3.801 2.5-4-0.5-5.3-1.8-3.2-0.301-3.3 0.801-5.3-0.7-7.2-1.101-15.8-1.399-15.3-0.9-11.7-0.2-0.899z">
<title>Illinois</title>
	</path>
	<path d="m622.9 216.1 1.5 1 1.101-0.301 2.1-1.899 2.5-1.8 14.299-1.1 18.4-1.8 1.6 15.5 4.9 42.6-0.601 2.9 1.301 1.6 0.199 1.301-2.3 1.6-3.6 1.7-3.2 0.399-0.5 4.801-4.7 3.6-2.899 4 0.199 2.4-0.5 1.399h-3.5l-1.399-1.7-5.2 3 0.2 3.101-0.9 0.2-0.5-0.9-2.4-1.7-3.6 1.5-1.4 2.9-1.2-0.601-1.601-1.8-4.399 0.5-5.7 1-2.5 1.3v-2.6l0.399-4.7 2.301-2.899 1.8-3.9 2.7-4.2-0.5-5.8-1.801-3.1-0.3-3.2 0.8-5.3-0.699-7.101-0.9-12.6-2.5-30.101 3 0.801z">
<title>Indiana</title>
	</path>
	<path d="m485.9 259.5-43.8-0.6-40.6-1.2-21.7-0.9-4.3 64.801 24.3 1 44.7 2.1 46.3 0.601 12.6-0.302 0.7-35-1.2-11.1-2.5-2-2.399-3-2.301-3.601 0.601-3 1.7-1.399v-2.1l-0.801-0.699-2.6-0.2-3.5-3.4h-5.2z">
<title>Kansas</title>
	</path>
	<path d="m607.2 331.8 12.601-0.7 0.1-4.101h4.3l30.4-3.199 45.1-4.301 5.601-3.6 3.899-2.1 0.101-1.9 6-7.8 4.1-3.601 2.1-2.399-3.3-2-2.5-2.7-3-3.8-0.5-2.2-2.6-1.4-0.9-1.899-0.2-6.101-2.6-2-1.9-1.1-0.5-2.3-1.3 0.199-2 1.2-2.5 2.7-1.901-1.699-2.5-0.5-2.4 1.4h-2.3l-1.8-2-5.601-0.101-1.8-4.5-2.9-1.5-2.1 0.801-4.2 0.199-0.5 2.101 1.2 1.5 0.3 2.1-2.8 2-3.8 1.8-2.601 0.4-0.5 4.5-4.899 3.6-2.601 3.7 0.2 2.2-0.898 2.3-4.5-0.1-1.301-1.3-3.899 2.2 0.2 3.301-2.4 0.6-0.8-1.4-1.7-1.199-2.7 1.1-1.8 3.5-2.2-1-1.399-1.6-3.7 0.399-5.601 1-2.8 1.3-1.2 3.4-1 1 1.5 3.7-4.199 1.4-1.9 1.399-0.4 2.2 1.2 2.4v2.199l-1.6 0.4-6.101-2.5-2.3 0.9-2 1.399-0.8 1.8 1.7 2.4-0.9 1.8-0.1 3.3-2.4 1.301-2.1 1.701 11.099-0.199z">
<title>Kentucky</title>
	</path>
	<path d="m526.9 485.9 8.101-0.3 10.3 3.6 6.5 1.101 3.7-1.5 3.199 1.1 3.2 1 0.8-2.1-3.2-1.101-2.601 0.5-2.7-1.6 0.801-1.5 3.1-1 1.8 1.5 1.8-1 3.2 0.6 1.5 2.4 0.3 2.3 4.5 0.3 1.8 1.8-0.8 1.601-1.3 0.8 1.6 1.6 8.4 3.601 3.6-1.3 1-2.4 2.601-0.6 1.8-1.5 1.3 1 0.8 2.899-2.3 0.8 0.601 0.601 3.399-1.3 2.3-3.4 0.801-0.5-2.101-0.3 0.8-1.601-0.199-1.5 2.1-0.5 1.1-1.3 0.601 0.8 0.6 3.101 4.2 0.6 4 1.9 1 1.5h2.899l1.101 1 2.3-3.101v-1.501h-1.3l-3.4-2.699-5.8-0.801-3.2-2.3 1.101-2.7 2.3 0.301 0.2-0.601-1.801-1v-0.5h3.2l1.8-3.1-1.3-1.9-0.3-2.7-1.5 0.2-1.9 2.101-0.6 2.6-3.1-0.6-1-1.801 1.8-1.899 1.899-1.7-2.199-6.5-3.4-3.4 1-7.3-0.2-0.5-1.3 0.2-33.1 1.4-0.801-2.4 0.801-8.5 8.6-14.8-0.9-2.6 1.4-0.4 0.4-2-2.2-2 0.1-1.9-2-4.5-0.399-5.1 0.1-0.7-26.4 0.8-25.199 0.101 0.399 9.7 0.7 9.5 0.5 3.699 2.6 4.5 0.9 4.4 4.3 6 0.3 3.1 0.601 0.801-0.7 8.3-2.8 4.6 1.2 2.4-0.5 2.6-0.801 7.3-1.3 3 0.2 3.7 4.696-1.502z">
<title>Louisiana</title>
	</path>
	<path d="m887.5 172.5-0.5-2.3 0.8-1.5 2.899-1.5 0.801 3.1-0.5 1.8-2.4 1.5v1l1.9-1.5 3.899-4.5 3.9-1.9 4.2-1.5-0.301-2.4-1-2.899-1.899-2.4-1.8-0.8-2.101 0.2-0.5 0.5 1 1.3 1.5-0.8 2.101 1.6 0.8 2.7-1.8 1.8-2.301 1-3.6-0.5-3.9-6-2.3-2.6h-1.8l-1.1 0.8-1.9-2.6 0.3-1.5 2.4-5.2-2.9-4.4-3.7 1.801-1.8 2.899-18.3 4.7-13.8 2.5-0.601 10.6 0.7 4.9 22-4.8 11.2-2.801 2 1.601 3.4 4.3 2.899 4.7 2.104-0.901zm12.5 1.4 2.199-0.7 0.5-1.7 1 0.101 1 2.3-1.3 0.5-3.899 0.1 0.5-0.601zm-9.4 0.8 2.3-2.6h1.6l1.801 1.5-2.4 1-2.2 1-1.101-0.9z">
<title>Massachusetts</title>
	</path>
	<path d="m834.8 264.1 1.7-3.801 0.5-4.8-6.301 1.101-5.8 0.3-3.8-16.8-2.3-5.5-1.499-4.6-22.2 4.3-37.6 7.601 2 10.399 4.8-4.899 2.5-0.7 1.399-1.5 1.801-2.7 1.6 0.7 2.6-0.2 2.601-2.1 2-1.5 2.1-0.601 1.5 1.101 2.7 1.399 1.9 1.801 1.3 1.399 4.8 1.601-0.601 2.899 5.8 2.101 2.1-2.601 3.7 2.5-2.1 3.3-0.7 3.301-1.8 2.6v2.1l0.3 0.801 2 1.3 3.399 1.1 4.301-0.1 3.1 1 2.1 0.3 1-2.1-1.5-2.101v-1.8l-2.399-2.1-2.101-5.5 1.3-5.301-0.199-2.1-1.301-1.3s1.5-1.601 1.5-2.3c0-0.601 0.5-2.101 0.5-2.101l1.9-1.3 1.9-1.6 0.5 1-1.5 1.6-1.3 3.7 0.3 1.1 1.8 0.3 0.5 5.5-2.1 1 0.3 3.601 0.5-0.2 1.1-1.9 1.6 1.801-1.6 1.3-0.3 3.399 2.6 3.4 3.9 0.5 1.6-0.8 3.2 4.2 1 0.399 7.4-2.899zm-14.5 0.2 1.1 2.5 0.2 1.801 1.1 1.899s0.9-0.899 0.9-1.2c0-0.3-0.7-3.1-0.7-3.1l-0.7-2.3-1.9 0.4z">
<title>Maryland</title>
	</path>
	<path d="m865.8 91.9 1.5 0.399v-2.6l0.8-5.5 2.6-4.7 1.5-4-1.9-2.399v-6l0.8-1 0.8-2.7-0.2-1.5-0.2-4.8 1.8-4.8 2.899-8.899 2.101-4.2h1.3l1.3 0.2v1.1l1.3 2.3 2.7 0.601 0.8-0.8v-1l4-2.9 1.8-1.8 1.5 0.2 6 2.399 1.9 1 9.1 29.9h6l0.8 1.899 0.2 4.801 2.9 2.3h0.8l0.2-0.5-0.5-1.1 2.8-0.5 1.9 2.1 2.3 3.7v1.899l-2.1 4.7-1.9 0.6-3.4 3.101-4.8 5.5h-1.3c-0.6 0-1-2.101-1-2.101l-1.8 0.2-1 1.5-2.4 1.5-1 1.5 1.6 1.5-0.5 0.601-0.5 2.699-1.9-0.2v-1.6l-0.3-1.3-1.5 0.3-1.801-3.2-2.1 1.301 1.3 1.5 0.3 1.1-0.8 1.3 0.3 3.101 0.2 1.6-1.6 2.6-2.9 0.5-0.3 2.9-5.3 3.1-1.3 0.5-1.601-1.5-3.1 3.601 1 3.2-1.5 1.3-0.2 4.399-1.1 6.301-2.2-0.9-0.5-3.1-4-1.101-0.2-2.5-11.7-37.43 1.302-0.172zm36.5 15.6 1.5-1.5 1.399 1.101 0.601 2.399-1.7 0.9-1.8-2.9zm6.7-5.9 1.8 1.899s1.3 0.101 1.3-0.2c0-0.3 0.2-2 0.2-2l0.899-0.8-0.8-1.8-2 0.7-1.399 2.201z">
<title>Maine</title>
	</path>
	<path d="m644.5 211 19.1-1.899 0.2 1.1 9.899-1.5 12-1.7 0.101-0.6 0.2-1.5 2.1-3.7 2-1.7-0.2-5.1 1.6-1.601 1.101-0.3 0.2-3.6 1.5-3 1.1 0.6 0.2 0.601 0.8 0.199 1.9-1-0.4-9.1-3.2-8.2-2.3-9.1-2.4-3.2-2.6-1.8-1.6 1.1-3.9 1.8-1.9 5-2.699 3.7-1.101 0.601-1.5-0.601s-2.6-1.5-2.399-2.1c0.199-0.601 0.5-5 0.5-5l3.399-1.3 0.8-3.4 0.601-2.6 2.399-1.601-0.3-10-1.6-2.3-1.3-0.8-0.801-2.101 0.801-0.8 1.6 0.3 0.2-1.6-2.601-2.2-1.3-2.6h-2.6l-4.5-1.5-5.5-3.4h-2.7l-0.6 0.601-1-0.5-3.101-2.301-2.899 1.802-2.9 2.3 0.3 3.6 1 0.3 2.101 0.5 0.5 0.801-2.601 0.8-2.6 0.3-1.5 1.8-0.3 2.101 0.3 1.6 0.3 5.5-3.6 2.1-0.601-0.199v-4.2l1.301-2.4 0.6-2.399-0.8-0.801-1.9 0.801-1 4.199-2.7 1.101-1.8 1.899-0.2 1 0.601 0.801-0.601 2.6-2.3 0.5v1.101l0.8 2.399-1.1 6.101-1.6 4 0.6 4.699 0.5 1.101-0.8 2.399-0.3 0.801-0.301 2.695 3.601 6 2.899 6.5 1.5 4.801-0.799 4.699-1 6-2.4 5.2-0.301 2.7-3.199 3.1 13-1zm-33.301-72.4-1.3-1.101-1.8-10.399-3.7-1.301-1.7-2.3-12.6-2.8-2.8-1.1-8.101-2.2-7.8-1-3.899-5.3 0.699-0.5 2.7-0.801 3.601-2.3v-1l0.6-0.6 6-1 2.4-1.9 4.399-2.1 0.2-1.3 1.9-2.9 1.8-0.8 1.3-1.8 2.3-2.301 4.4-2.399 4.7-0.5 1.1 1.1-0.3 1-3.7 1-1.5 3.101-2.3 0.8-0.5 2.399-2.4 3.2-0.3 2.601 0.8 0.5 1-1.101 3.602-2.898 1.3 1.3h2.3l3.2 1 1.5 1.1 1.5 3.101 2.7 2.699 3.899-0.199 1.5-1 1.601 1.3 1.6 0.5 1.3-0.8h1.101l1.6-1 4-3.601 3.4-1.1 6.6-0.3 4.5-1.9 2.6-1.3 1.5 0.2v5.699l0.5 0.301 2.9 0.8 1.9-0.5 6.1-1.601 1.1-1.1 1.5 0.5v7l3.2 3.1 1.3 0.601 1.3 1-1.3 0.3-0.8-0.3-3.7-0.5-2.1 0.6-2.3-0.2-3.2 1.5h-1.8l-5.8-1.3-5.2 0.2-1.9 2.6-7 0.601-2.4 0.8-1.1 3.1-1.3 1.101-0.5-0.2-1.5-1.6-4.5 2.399h-0.6l-1.101-1.6-0.8 0.2-1.9 4.399-1 4-3.199 6.9-1.302-0.8zm-29.599-56.5 1.8-2.1 2.2-0.8 5.4-3.9 2.3-0.6 0.5 0.5-5.101 5.1-3.3 1.9-2.1 0.9-1.699-1zm86.2 32.1 0.6 2.5 3.2 0.2 1.3-1.2s-0.1-1.5-0.399-1.6c-0.301-0.2-1.601-1.9-1.601-1.9l-2.2 0.2-1.6 0.2-0.3 1.1 1 0.5z">
<title>Michigan</title>
	</path>
	<path d="m464.6 66.79-0.6 3.91v10.27l1.6 5.03 1.9 3.32 0.5 9.93 1.8 13.45 1.8 7.3 0.399 6.4v5.3l-1.6 1.8-1.8 1.3v1.5l0.899 1.7 4.101 3.5 0.7 3.2v35.9l60.301-0.6 21.2-0.7-0.5-6-1.8-2.1-7.2-4.6-3.601-5.301-3.399-0.899-2-2.8h-3.2l-3.5-3.801-0.5-7 0.1-3.899 1.5-3-0.7-2.7-2.8-3.1 2.2-6.101 5.4-4 1.2-1.399-0.2-8 0.2-3 2.6-3 3.8-2.9 1.3-0.2 4.5-5 1.8-0.8 2.301-3.9 2.399-3.6 3.101-2.6 4.8-2 9.2-4.101 3.899-1.8 0.601-2.3-4.4 0.399-0.7 1.101h-0.6l-1.8-3.101-8.9 0.301-1 0.8h-1l-0.5-1.3-0.8-1.801-2.601 0.5-3.199 3.2-1.601 0.8h-3.1l-2.6-1v-2.1l-1.301-0.2-0.5 0.5-2.6-1.3-0.5-2.9-1.5 0.5-0.5 1-2.4-0.5-5.3-2.399-3.899-2.599h-2.9l-1.3-1-2.3 0.601-1.1 1.099-0.3 1.3h-4.8v-2.1l-6.3-0.3-0.301-1.5h-4.8l-1.6-1.601-1.5-6.1-0.8-5.5-1.9-0.8-2.3-0.5-0.601 0.2-0.3 8.199-30.1-0.029 1.802 5.521z">
<title>Minnesota</title>
	</path>
	<path d="m593.1 338.7 0.5-5.899 4.2-3.4 1.899-1v-2.899l0.7-1.601-1.1-1.6-2.4 0.3-2.1-2.5-1.7-4.5 0.901-2.601-2-3.199-1.801-4.601-4.6-0.7-6.8-5.6-2.2-4.2 0.8-3.3 2.2-6 0.6-3-1.899-1-6.9-0.601-1.1-1.899v-4.1l-5.3-3.5-7.2-7.8-2.3-7.3-0.5-4.2 0.699-2.399-2.6-3.101-1.2-2.399-7.7 0.8-10 0.6-48.8 1.2 1.3 2.6-0.1 2.2 2.3 3.601 3 3.899 3.101 3 2.6 0.2 1.4 1.1v2.9l-1.801 1.6-0.5 2.301 2.101 3.199 2.399 3 2.601 2.101 1.3 11.6-0.8 40.001 0.5 5.699 23.7-0.199 23.3-0.7 32.5-1.3 2.2 3.699-0.801 3.101-3.1 2.5-0.5 1.8 5.2 0.5 4.1-1.1 1.701-5.303z">
<title>Missouri</title>
	</path>
	<path d="m604.3 472.5 2.6-4.199 1.8 0.8 6.8-1.9 2.101 0.3 1.5 0.801h5.2l0.399-1.601-1.7-14.8-2.8-19 1-45.1-0.2-16.7 0.2-6.3-4.8 0.3-19.6 1.6-13 0.4-0.2 3.2-2.8 1.3-2.601 5.1 0.5 1.601 0.101 2.399-2.9 1.101-3.5 5.1 0.8 2.3-3 2.5-1 5.7-0.6 1.9 1.6 2.5-1.5 1.399 1.5 2.8 0.3 4.2-1.199 2.5-0.2 0.9 0.399 5 2 4.5-0.1 1.7 2.3 2-0.7 3.1-0.899 0.3 0.6 1.9-8.6 15-0.8 8.2 0.5 1.5 24.199-0.7 8.2-0.7 1.9-0.3 0.6 1.399-1 7.101 3.3 3.3 2.2 6.4 1.1-0.801z">
<title>Mississippi</title>
	</path>
	<path d="m361.1 70.77-5.3 57.13-1.3 15.2-59.1-6.6-49-7.1-1.4 11.2-1.9-1.7-0.399-2.5-1.301-1.9-3.3 1.5-0.7 2.5-2.3 0.3-3.8-1.6-4.1 0.1-2.4 0.7-3.2-1.5-3 0.2-2.1 1.9-0.9-0.6-0.7-3.399 0.7-3.2-2.7-3.2-3.3-2.5-2.5-12.6-0.1-5.301-1.6-0.8-0.6 1-4.5 3.2-1.2-0.1-2.3-2.801-0.2-2.8 7-17.149-0.6-2.67-3.5-1.12-0.4-0.91-2.7-3.5-4.6-10.41-3.2-1.58-1.8-4.26 1.3-4.63-3.2-7.57 4.4-21.29 32.7 6.89 18.399 3.4 32.301 5.3 29.3 4 29.2 3.5 30.8 3.07-0.9 14.2z">
<title>Montana</title>
	</path>
	<path d="m786.7 357.7-12.699-7.7-3.101-0.8-16.6 2.101-1.601-3-2.8-2.2-16.7 0.5-7.398 0.899-9.2 4.5-6.8 2.7-6.5 1.2-13.4 1.4 0.1-4.1 1.699-1.3 2.7-0.7 0.7-3.8 3.9-2.5 3.899-1.5 4.5-3.7 4.4-2.3 0.7-3.2 4.1-3.8 0.7 1 2.5 0.2 2.399-3.6 1.7-0.4 2.601 0.3 1.8-4 2.5-2.399 0.5-1.801 0.1-3.5 4.4 0.101 38.5-5.601 57.5-12.3 2 4.8 3.6 6.5 2.4 2.4 0.6 2.3-2.398 0.2 0.8 0.6-0.3 4.2-2.601 1.3-0.6 2.101-1.299 2.899-3.7 1.601-2.4-0.3-1.5-0.2-1.6-1.3 0.3 1.3v1h1.9l0.8 1.3-1.9 6.3h4.2l0.6 1.601 2.3-2.302 1.3-0.5-1.9 3.601-3.1 4.8h-1.3l-1.101-0.5-2.7 0.6-5.199 2.399-6.5 5.3-3.4 4.7-1.9 6.5-0.5 2.4-4.7 0.5-5.1 1.5-10.201-8.3zm49.301-26.2 2.6-2.5 3.2-2.6 1.5-0.6 0.2-2-0.6-6.1-1.5-2.3-0.6-1.9 0.7-0.199 2.699 5.5 0.4 4.399-0.2 3.4-3.399 1.5-2.801 2.399-1.1 1.2-1.099-0.199z">
<title>North Carolina</title>
	</path>
	<path d="m471 126.4-0.4-6.2-1.8-7.3-1.8-13.61-0.5-9.7-1.9-3.18-1.6-5.32v-10.41l0.6-3.851-1.8-5.54-28.601-0.59-18.6-0.6-26.499-1.299-25.2-2.159-0.9 14.419-4.7 50.94 56.8 3.9 56.9 1.7v-1.2z">
<title>North Dakota</title>
	</path>
	<path d="m470.3 204.3-1-2.3-0.5-1.6-2.9-1.601-4.8-1.5-2.2-1.199-2.6 0.1-3.7 0.4-4.2 1.199-6-4.1-2.2-2-10.7 0.6-41.5-2.399-35.601-2.2-4.3 43.7 33.1 3.3-1.399 21.1 21.699 1 40.601 1.2 43.8 0.601h4.5l-2.2-3-2.6-3.9 0.1-2.3-1.399-2.7-1.9-5.2-0.4-6.7-1.399-4.1-0.5-5-2.3-3.7-1-4.7-2.802-7.901-1-5.3-2.7 0.2z">
<title>Nebraska</title>
	</path>
	<path d="m881.7 141.3 1.101-3.199-2.7-1.2-0.5-3.101-4.1-1.1-0.301-3-11.699-37.48-0.7 0.079-0.601 1.601-0.6-0.5-1-1-1.5 1.899-0.2 2.29 0.5 8.41 1.9 2.8v4.301l-3.9 4.8-2.399 0.9v0.7l1.1 1.9v8.6l-0.8 9.2-0.2 4.7 1 1.399-0.2 4.7-0.5 1.5 1 1.101 5.1-1.2 13.801-3.5 1.699-2.9 4-1.899 0.699-0.801z">
<title>New Hampshire</title>
	</path>
	<path d="m823.7 228.3 0.101-1.5 2.7-1.3 1.699-2.8 1.7-2.4 3.3-3.199v-1.2l-6.1-4.101-1-2.699-2.7-0.301-0.1-0.899-0.7-2.2 2.2-1.1 0.2-2.9-1.301-1.3 0.2-1.2 1.9-3.1v-3.101l2.5-3.1 5.6 2.5 6.4 1.899 2.5 1.2 0.1 1.8-0.5 2.7 0.4 4.5-2.101 1.9-1.1 1 0.5 0.5 2.7-0.3 1.1-0.801 1.601 3.4 0.199 9.4 0.601 1.1-1.101 5.5-3.1 6.5-2.7 4-0.8 4.8-2.1 2.4h-0.801l-0.3-2.7 0.8-1-0.196-1.498-4-0.6-4.801-2.301-3.199-2.899-1-2 0.699-2.6z">
<title>New Jersey</title>
	</path>
	<path d="m270.2 429.4-16.7-2.6-1.2 9.6-15.8-2 6-39.7 7-53.2 4.4-30.9 34 3.899 37.4 4.4 32 2.8-0.3 10.8-1.4-0.1-7.399 97.7-28.4-1.8-38.1-3.7 0.699 6.3-12.2-1.499z">
<title>New Mexico</title>
	</path>
	<path d="m123.1 173.6 38.7 8.5 26 5.199-10.6 53.101-5.4 29.8-3.3 15.5-2.101 11.1-2.6 16.4-1.7 3.101-1.6-0.101-1.2-2.6-2.8-0.5-1.299-1.1-1.8 0.1-0.899 0.8-1.8 1.3-0.301 7.3-0.3 1.5-0.5 12.4-1.1 1.8-16.7-25.5-42.1-62.1-12.431-19 8.551-32.6 8.011-31.3 29.269 6.9z">
<title>Nevada</title>
	</path>
	<path d="m843.4 200 0.5-2.7-0.2-2.399-3-1.5-6.5-2-6-2.601-0.6-0.399-2.7-0.3-2-1.5-2.1-5.9-3.3-0.5-2.4-2.4-38.4 8.101-31.6 6-0.5-6.5 1.6-1.2 1.301-1.1 1-1.601 1.8-1.1 1.899-1.8 0.5-1.601 2.101-2.7 1.1-1-0.2-1-1.3-3.1-1.8-0.2-1.9-6.1 2.9-1.8 4.4-1.5 4-1.301 3.199-0.5 6.301-0.199 1.899 1.3 1.601 0.2 2.1-1.301 2.6-1.1 5.2-0.5 2.1-1.8 1.801-3.2 1.6-1.9h2.1l1.9-1.1 0.2-2.3-1.5-2.101-0.3-1.5 1.1-2.1v-1.5h-1.8l-1.8-0.8-0.801-1.101-0.199-2.6 5.8-5.5 0.6-0.8 1.5-2.9 2.9-4.5 2.7-3.7 2.1-2.399 2.4-1.8 3.1-1.2 5.5-1.3 3.2 0.199 4.5-1.5 7.399-2.199 0.7 4.899 2.4 6.5 0.8 5-1 4.2 2.6 4.5 0.801 2-0.9 3.2 3.7 1.7 2.7 10.199v5.801l-0.601 10.899 0.8 5.4 0.7 3.6 1.5 7.3v8.101l-1.1 2.3 2.1 2.7 0.5 0.899-1.901 1.804 0.3 1.3 1.3-0.3 1.5-1.301 2.3-2.6 1.101-0.6 1.6 0.6 2.3 0.2 7.9-3.9 2.899-2.7 1.301-1.5 4.199 1.601-3.4 3.6-3.9 2.9-7.1 5.3-2.601 1-5.8 1.9-4 1.1-1-0.4-0.299-3.8z">
<title>New York</title>
	</path>
	<path d="m663.8 211.2 1.7 15.5 4.8 41.1 3.899-0.199 2.301-0.801 3.6 1.801 1.7 4.199 5.399 0.101 1.801 2h1.699l2.4-1.4 3.1 0.5 1.5 1.3 1.801-2 2.3-1.399 2.399-0.4 0.601 2.7 1.6 1 2.6 2 0.801 0.2 2-0.101 1.199-0.6v-2.1l1.7-1.5 0.101-4.801 1.1-4.199 1.9-1.301 1 0.7 1 1.101 0.699 0.2 0.4-0.4-0.9-2.7v-2.2l1.101-1.399 2.5-3.601 1.3-1.5 2.2 0.5 2.1-1.5 3-3.3 2.2-3.7 0.2-5.399 0.5-5v-4.602l-1.2-3.2 1.2-1.8 1.3-1.2-0.6-2.8-4.301-25.6-6.199 3.7-3.9 2.3-3.4 3.7-4 3.899-3.199 0.8-2.9 0.5-5.5 2.601-2.1 0.2-3.402-3.1-5.2 0.601-2.6-1.5-2.2-1.301-23.1 3.4z">
<title>Ohio</title>
	</path>
	<path d="m411.9 334.9-1.8 24.3-0.9 18 0.2 1.601 4 3.6 1.7 0.9h0.9l0.899-2.101 1.5 1.9 1.601 0.1 0.3-0.2 0.2-1.1 2.8 1.4-0.4 3.5 3.8 0.5 2.5 1 4.2 0.6 2.3 1.6 2.5-1.699 3.5 0.699 2.2 3.101 1.2 0.1v2.3l2.1 0.7 2.5-2.1 1.801 0.6 2.699 0.101 0.7 2.3 4.4 1.8 1.7-0.3 1.899-4.2h1.3l1.101 2.1 4.2 0.801 3.399 1.3 3 0.8 1.601-0.7 0.699-2.7h4.5l1.9 0.9 2.7-1.9h1.399l0.601 1.4h3.6l2-1.8 2.3 0.6 1.7 2.2 3 1.7 3.4 0.899 1.899 1.2-0.3-37.6-1.399-10.9-0.101-8.6-1.498-6.602-0.6-6.8 0.1-4.3-12.6 0.3-46.3-0.5-44.7-2.1-41.5-1.8-0.4 10.699 54 2.401z">
<title>Oklahoma</title>
	</path>
	<path d="m67.44 158.9 28.24 7.2 27.521 6.5 17 3.699 8.8-35.1 1.2-4.4 2.399-5.5-0.7-1.3-2.5 0.101-1.3-1.801 0.601-1.5 0.399-3.3 4.7-5.7 1.9-0.899 0.899-0.8 0.7-2.7 0.8-1.101 3.9-5.699 3.7-4 0.199-3.261-3.398-2.489-1.2-4.551-13.1-3.829-15.3-3.47-14.8 0.37-1.1-1.31-5.1 1.84-4.5-0.48-2.4-1.58-1.3 0.54-4.681-0.29-1.96-1.43-4.84-1.77-1.1-0.07-4.45-1.271-1.76 1.521-6.261-0.24-5.31-3.85 0.21-9.28-2.05-3.5-4.098-0.6-0.7-2.5-2.4-0.5-5.8 2.1-2.3 6.5-3.2 10-3.2 6.5-5 14.1-6.5 13.6-8.1 12.6-1.9 2.9-0.8 8.6-1.3 6 2.71 3.5 38.53 11.9z">
<title>Oregon</title>
	</path>
	<path d="m736.6 192.2 1.3-0.5 5.7-5.5 0.7 6.9 33.5-6.5 36.899-7.801 2.301 2.301 3.1 0.399 2 5.601 2.4 1.899 2.8 0.4 0.1 0.1-2.6 3.2v3.1l-1.9 3.101-0.2 1.899 1.3 1.301-0.2 1.9-2.4 1.101 1 3.399 0.2 1.101 2.8 0.3 0.9 2.5 5.899 3.899v0.4l-3.1 3-1.5 2.2-1.7 2.8-2.7 1.2-1.399 0.3-2.101 1.3-1.6 1.4-22.4 4.3-38.699 7.8-11.301 1.4-3.899 0.7-5.101-22.4-4.3-25.9 4.201-2.6z">
<title>Pennsylvania</title>
	</path>
	<path d="m873.6 175.7-0.8-4.4-1.601-6 5.7-1.5 1.5 1.301 3.4 4.3 2.8 4.399-2.8 1.4-1.3-0.2-1.101 1.8-2.398 1.9-2.801 1.1-0.599-4.1z">
<title>Rhode Island</title>
	</path>
	<path d="m759 413.6-2.101-1-1.899-5.6-2.5-2.3-2.5-0.5-1.5-4.6-3-6.5-4.2-1.8-1.9-1.8-1.2-2.601-2.399-2-2.301-1.3-2.199-2.9-3.2-2.399-4.4-1.7-0.399-1.4-2.301-2.8-0.5-1.5-3.8-5.399-3.399 0.1-3.9-2.5-1.2-1.2-0.2-1.399 0.601-1.601 2.699-1.3-0.8-2 6.4-2.7 9.2-4.5 7.1-0.899 16.4-0.5 2.3 1.899 1.8 3.5 4.6-0.8 12.601-1.5 2.7 0.8 12.5 7.4 10.1 8.3-5.3 5.4-2.601 6.1-0.5 6.3-1.6 0.8-1.1 2.7-2.4 0.601-2.1 3.6-2.7 2.7-2.3 3.399-1.601 0.801-3.6 3.399-2.9 0.2 1 3.2-5 5.3-2.3 1.6-2.201 0.899z">
<title>South Carolina</title>
	</path>
	<path d="m471 181.1-0.9 3.199 0.4 3 2.6 2-1.2 5.4-1.8 4.1 1.5 3.301 0.7 1.1-1.3 0.1-0.7-1.6-0.601-2-3.3-1.8-4.8-1.5-2.5-1.3-2.9 0.1-3.899 0.4-3.8 1.199-5.301-3.8-2.699-2.399-10.9 0.8-41.5-2.4-35.6-2.2 1.5-24.8 2.8-34 0.4-5 56.899 3.9 56.899 1.7v2.699l-1.3 1.5-2 1.5-0.1 2.2 1.1 2.2 4.101 3.4 0.5 2.699v35.9l-2.299 0.402z">
<title>South Dakota</title>
	</path>
	<path d="m670.8 359.6-13.101 1.2-23.3 2.2-37.6 2.699-11.8 0.4 0.899-0.6 0.9-4.5-1.2-3.601 3.9-2.3 0.399-2.5 1.2-4.3 3-9.5 0.5-5.601 0.3-0.199 12.3-0.2 13.601-0.8 0.1-3.9 3.5-0.1 30.4-3.301 54-5.199 10.3-1.5 7.6-0.2 2.4-1.9 1.3 0.3-0.1 3.3-0.4 1.601-2.399 2.2-1.601 3.6-2-0.399-2.398 0.9-2.2 3.3-1.4-0.2-0.8-1.199-1.1 0.399-4.301 4-0.8 3.101-4.2 2.199-4.3 3.601-3.8 1.5-4.4 2.8-0.6 3.6-2.5 0.5-2 1.7-0.2 4.8-18.099 2.099z">
<title>Tennessee</title>
	</path>
	<path d="m282.8 425.6 37 3.6 29.3 1.9 7.4-97.7 54.399 2.4-1.7 23.3-1 18 0.2 2 4.4 4.1 2 1.101h1.8l0.5-1.2 0.7 0.899 2.399 0.2 1.101-0.6v-0.2l1 0.5-0.4 3.7 4.5 0.7 2.4 0.899 4.199 0.7 2.601 1.8 2.8-1.899 2.7 0.6 2.2 3.101 0.8 0.1v2.1l3.3 1.101 2.5-2.101 1.5 0.5 2.1 0.101 0.601 2.1 5.2 2 2.3-0.5 1.899-4h0.101l1.1 1.9 4.601 0.899 3.399 1.301 3.2 1 2.4-1.2 0.7-2.3h3.6l2.1 1 3-2h0.4l0.5 1.399h4.7l1.899-1.8 1.301 0.4 1.699 2.1 3.301 1.9 3.399 1 2.5 1.399 2.7 2 3.1-1.2 2.101 0.8 0.7 20 0.699 9.5 0.601 4.101 2.6 4.399 0.9 4.5 4.2 5.9 0.3 3.1 0.6 0.801-0.7 7.699-2.899 4.801 1.3 2.6-0.5 2.4-0.8 7.199-1.301 3 0.301 4.2-5.601 1.601-9.899 4.5-1 1.899-2.601 1.9-2.1 1.5-1.3 0.8-5.7 5.3-2.7 2.101-5.3 3.199-5.7 2.4-6.3 3.4-1.8 1.5-5.801 3.6-3.399 0.6-3.9 5.5-4 0.301-1 1.899 2.3 1.9-1.5 5.5-1.3 4.5-1.1 3.9-0.8 4.5 0.8 2.399 1.8 7 1 6.101 1.8 2.699-1 1.5-3.1 1.9-5.7-3.9-5.5-1.1-1.3 0.5-3.2-0.6-4.2-3.101-5.2-1.1-7.6-3.4-2.1-3.899-1.301-6.5-3.199-1.9-0.601-2.3 0.601-0.601 0.3-3.399-1.3-0.601-0.601-1 1.3-4.399-1.6-2.3-3.2-1.301-3.399-4.399-3.601-6.601-4.2-2.6 0.2-1.9-5.3-12.3-0.8-4.2-1.8-1.899-0.2-1.5-6-5.3-2.599-3.099v-1.1l-2.6-2.1-6.8-1.1-7.4-0.6-3.1-2.301-4.5 1.801-3.6 1.5-2.301 3.199-1 3.7-4.399 6.101-2.4 2.399-2.6-1-1.8-1.1-1.9-0.601-3.9-2.3v-0.6l-1.8-1.9-5.2-2.1-7.399-7.8-2.3-4.7v-8.098l-3.2-6.5-0.5-2.699-1.601-1-1.1-2.101-5-2.1-1.3-1.601-7.101-7.899-1.3-3.2-4.7-2.3-1.5-4.4-2.6-2.899-1.7-0.5-0.599-5.401zm174.4 141.7-0.6-7.101-2.7-7.2-0.6-7 1.5-8.199 3.3-6.9 3.5-5.4 3.2-3.6 0.6 0.2-4.8 6.6-4.4 6.5-2 6.601-0.299 5.198 0.9 6.101 2.6 7.2 0.5 5.199 0.2 1.5-0.901 0.301z">
<title>Texas</title>
	</path>
	<path d="m228.4 305.9 24.6 3.6 1.899-13.7 7-50.5 2.301-22-32.2-3.5 2.2-13.1 1.8-10.6-34.7-6.1-12.5-2.5-10.6 52.9-5.4 30-3.3 15.399-1.7 9.2 60.6 10.901z">
<title>Utah</title>
	</path>
	<path d="m834.7 265.2-0.199 2.8-2.9 3.8-0.4 4.601 0.5 3.399-1.8 5-2.2 1.9-1.5-4.6 0.4-5.4 1.6-4.2 0.7-3.3-0.1-1.7 5.899-2.3zm-60.299 44.601-38.6 5.6-4.8-0.1-2.2-0.3-2.5 1.899-7.3 0.101-10.301 1.6-6.699 0.599 4.1-2.6 4.1-2.3v-2.1l5.7-7.3 4.101-3.7 2.199-2.5 3.601 4.3 3.8 0.9 2.7-1 2-1.5 2.399 1.2 4.601-1.3 1.7-4.4 2.399 0.7 3.2-2.3 1.6 0.399 2.801-3.2 0.199-2.699-0.8-1.2 4.8-10.5 1.801-5.2 0.5-4.7 0.699-0.2 1.101 1.7 1.5 1.2 3.899-0.2 1.7-8.1 3-0.601 0.8-2.6 2.801-2.2 1.1-2.1 1.8-4.301 0.1-4.6 3.601 1.4 6.6 3.1 0.3-5.2 3.4 1.2-0.6 2.9 8.6 3.1 1.4 1.8-0.801 3.3-1.3 1.301-0.5 1.699 0.5 2.4 2 1.3 3.9 1.4 2.9 1 4.899 0.899 2.2 2.101 3.2 0.399 0.899 1.2-0.399 4.7 1.399 1.1-0.5 1.9 1.2 0.8-0.2 1.4-2.699-0.097 0.1 1.601 2.3 1.5 0.101 1.399 1.8 1.801 0.5 2.5-2.601 1.399 1.601 1.5 5.8-1.7 3.7 6.2-56.901 12.301z">
<title>Virginia</title>
	</path>
	<path d="m832.7 111.3 2.4 6.5 0.8 5.301-1 3.899 2.5 4.4 0.9 2.3-0.7 2.6 3.3 1.5 2.9 10.801v5.3l11.5-2.101-1-1.1 0.6-1.9 0.2-4.3-1-1.399 0.2-4.7 0.8-9.3v-8.5l-1.099-1.801v-1.6l2.8-1.1 3.5-4.4v-3.6l-1.9-2.7-0.3-5.79-26.1 6.79 0.699 4.9z">
<title>Vermont</title>
	</path>
	<path d="m74.5 67.7-2.3-4.3-4.1-0.7-0.4-2.4-2.5-0.6-2.9-0.5-1.8 1-2.3-2.9 0.3-2.899 2.7-0.3 1.6-4-2.6-1.101 0.199-3.7 4.4-0.6-2.699-2.7-1.5-7.1 0.6-2.9v-7.9l-1.8-3.2 2.301-9.4 2.1 0.5 2.4 2.9 2.699 2.6 3.2 1.9 4.5 2.1 3.1 0.6 2.899 1.5 3.4 1 2.3-0.2v-2.4l1.3-1.1 2.101-1.3 0.3 1.1 0.3 1.8-2.3 0.5-0.3 2.1 1.8 1.5 1.1 2.4 0.601 1.9 1.5-0.2 0.199-1.3-1-1.3-0.5-3.2 0.801-1.8-0.601-1.5v-2.6l1.8-3.6-1.1-2.6-2.4-4.8 0.3-0.8 1.4-0.8 4.4 1.5 9.7 2.7 8.6 1.899 20 5.7 23 5.7 15 3.49-4.8 17.56-4.5 20.831-3.4 16.25-0.399 9.18-12.9-3.72-15.301-3.47-14.5 0.319-1.1-1.529-5.7 2.09-3.9-0.42-2.6-1.79-1.7 0.649-4.15-0.25-1.72-1.319-5.16-1.82-1.18-0.16-4.8-1.39-1.92 1.65-5.65-0.25-4.61-3.35 0.19-8.75zm9.6-55.4 2-0.199 0.5 1.399 1.5-1.6h2.3l0.801 1.5-1.5 1.7 0.6 0.8-0.7 2-1.401 0.4s-0.9 0.101-0.9-0.199c0-0.301 1.5-2.601 1.5-2.601l-1.7-0.6-0.3 1.5-0.7 0.6-1.5-2.3-0.5-2.4z">
<title>Washington</title>
	</path>
	<path d="m541.4 109.9 2.9 0.5 2.899-0.601 7.4-3.199 2.9-1.9 2.1-0.8 1.9 1.5-1.101 1.1-1.898 3.1-0.6 1.9 1 0.601 1.8-1 1.101-0.2 2.7 0.8 0.6 1.1 1.1 0.2 0.601-1.1 4 5.3 8.2 1.2 8.199 2.2 2.601 1.1 12.3 2.6 1.6 2.301 3.601 1.199 1.697 10.199 1.6 1.4 1.5 0.899-1.1 2.301-1.801 1.6-2.1 4.7-1.3 2.399 0.2 1.801 1.5 0.3 1.1-1.9 1.5-0.8 0.8-2.3 1.9-1.8 2.7-4 4.199-6.301 0.801-0.5 0.3 1-0.2 2.301-2.9 6.8-2.699 5.7-0.5 3.199-0.6 2.601 0.8 1.3-0.199 2.7-1.9 2.399-0.5 1.801 0.6 3.6 0.601 3.4-1.5 2.6-0.801 2.9-1 3.1 1.101 2.4 0.6 6.1 1.601 4.5-0.2 3-15.9 1.8-17.5 1h-12.703l-0.7-1.5-2.9-0.399-2.6-1.301-2.3-3.699-0.301-3.601 2-2.899-0.5-1.4-2.1-2.2-0.8-3.3-0.601-6.8-2.1-2.5-7-4.5-3.8-5.4-3.4-1-2.2-2.8h-3.198l-2.9-3.3-0.5-6.5 0.1-3.8 1.5-3.101-0.8-3.2-2.5-2.8 1.8-5.399 5.2-3.801 1.6-1.9-0.2-8.101 0.2-2.8 2.399-2.8 1.001 0.701z">
<title>Wisconsin</title>
	</path>
	<path d="m758.9 254.3 5.8-6 2.601-0.8 1.6-1.5 1.5-2.2 1.1 0.301 3.101-0.2 4.6-3.601 1.5-0.5 1.3 1 2.601 1.2 3 3-0.4 4.3-5.4-2.6-4.8-1.8-0.1 5.899-2.6 5.7-2.9 2.4-0.8 2.3-3 0.5-1.7 8.1-2.8 0.2-1.101-1-1.199-2-2.2 0.5-0.5 5.101-1.8 5.1-5 11 0.899 1.4-0.1 2-2.2 2.5-1.6-0.4-3.101 2.3-2.8-0.8-1.8 4.9-3.8 1-2.5-1.301-2.5 1.9-2.3 0.7-3.2-0.8-3.8-4.5-3.5-2.2-2.5-2.5-2.9-3.7-0.5-2.3-2.8-1.7-0.601-1.3-0.2-5.599 0.3 0.101 2.399-0.2 1.801-1v-2.201l1.699-1.5 0.101-5.2 0.899-3.6 1.101-0.7 0.399 0.3 1 1.101 1.7 0.5 1.101-1.3-1-3.101v-1.6l3.1-4.601 1.2-1.3 2 0.5 2.6-1.8 3.1-3.4 2.4-4.1 0.2-5.6 0.5-4.801v-4.898l-1.1-3 0.899-1.3 0.8-0.7 4.301 19.3 4.3-0.8 11.2-1.3 2.4 12.2z">
<title>West Virginia</title>
	</path>
	<path d="m353 161.9-1.5 25.399-4.4 44-2.7-0.3-83.3-9.1-27.899-3 2-12 6.899-41 3.8-24.2 1.301-11.2 48.199 7 59.1 6.501-1.5 17.9z">
<title>Wyoming</title>
	</path>
	
		<path d="m801.8 253.8-1.101-1.6-1-0.8 1.101-1.601 2.2 1.5-1.2 2.501z"/>
		<circle cx="801.3" cy="251.8" r="5" stroke="#fff" stroke-width="1.5"/>
	
</g>

</svg>
